<?xml version="1.0" standalone="no"?>
<!DOCTYPE svg PUBLIC "-//W3C//DTD SVG 20010904//EN"
 "http://www.w3.org/TR/2001/REC-SVG-20010904/DTD/svg10.dtd">
<svg version="1.0" xmlns="http://www.w3.org/2000/svg"
 width="1250.000000pt" height="1250.000000pt" viewBox="0 0 1250.000000 1250.000000"
 preserveAspectRatio="xMidYMid meet">
<metadata>
Created by potrace 1.14, written by Peter Selinger 2001-2017
</metadata>
<g transform="translate(0.000000,1250.000000) scale(0.100000,-0.100000)"
fill="#000000" stroke="none">
<path d="M6087 11684 c-1 -1 -66 -5 -145 -9 -79 -3 -151 -8 -160 -10 -9 -1
-53 -6 -97 -9 -44 -4 -91 -9 -105 -11 -14 -2 -45 -7 -70 -11 -74 -10 -128 -19
-190 -30 -14 -2 -41 -7 -60 -10 -82 -13 -360 -78 -487 -114 -483 -137 -958
-347 -1383 -610 -564 -350 -1064 -806 -1471 -1340 -81 -108 -80 -105 -203
-290 -326 -489 -569 -1028 -720 -1600 -36 -138 -83 -347 -92 -410 -2 -19 -6
-42 -9 -50 -2 -8 -7 -35 -10 -60 -3 -25 -10 -70 -15 -100 -12 -68 -16 -104
-25 -205 -4 -44 -9 -93 -11 -110 -22 -222 -22 -695 1 -930 14 -135 31 -280 41
-340 42 -249 94 -498 129 -615 59 -198 80 -264 101 -325 148 -413 278 -693
482 -1035 81 -136 240 -373 254 -378 4 -2 8 -8 8 -13 0 -14 133 -186 254 -328
187 -220 436 -470 641 -641 28 -23 60 -51 73 -61 107 -90 311 -239 469 -342
415 -272 882 -492 1348 -636 55 -17 114 -35 130 -40 32 -11 226 -60 260 -67
23 -4 27 -5 160 -33 86 -19 170 -33 262 -46 13 -2 40 -6 60 -9 55 -8 110 -15
178 -21 33 -3 76 -8 95 -10 255 -31 843 -20 1125 20 17 2 53 7 80 10 28 4 61
8 75 11 14 2 41 6 60 9 19 3 46 7 60 10 14 3 41 8 60 11 19 3 63 12 98 20 34
7 77 16 95 19 17 3 101 24 185 45 561 146 1088 379 1602 710 105 67 332 231
405 292 11 9 40 33 65 53 323 266 652 608 896 932 138 183 312 448 399 608 12
22 32 58 45 80 75 132 223 453 295 640 90 233 208 632 241 815 3 14 11 57 19
95 16 82 25 131 30 165 2 14 8 54 14 90 5 36 13 90 16 120 3 30 8 71 10 90 18
147 28 362 28 570 0 175 -10 428 -18 460 -2 8 -7 58 -10 110 -4 52 -9 98 -10
101 -2 3 -6 27 -10 55 -20 169 -67 414 -121 624 -41 162 -153 515 -187 592 -8
18 -27 65 -42 103 -89 232 -310 660 -436 847 -22 31 -39 59 -39 62 0 25 -332
466 -445 592 -5 7 -37 43 -70 80 -100 114 -353 363 -475 468 -63 54 -126 108
-140 120 -101 87 -474 351 -600 425 -440 258 -697 377 -1130 521 -159 53 -270
87 -310 95 -8 2 -51 12 -95 24 -44 11 -93 22 -110 25 -16 3 -45 10 -63 15 -18
5 -35 10 -37 10 -7 -1 -84 12 -110 18 -17 3 -95 17 -160 27 -11 2 -45 6 -75
10 -30 4 -66 9 -80 11 -65 9 -168 18 -345 31 -80 5 -474 12 -478 8z"/>
</g>
</svg>
